<svg width="615" height="460" viewBox="0 0 615 460" fill="none" xmlns="http://www.w3.org/2000/svg">
<g clip-path="url(#clip0)">
<path d="M81.66 175.5C134.734 147.6 191.906 125.4 251.677 117.6C281.563 113.8 312.048 113.6 341.833 118.2C372.518 122.9 402.304 132.4 431.689 142.4C464.074 153.4 497.257 164.1 526.743 182.1C527.443 182.5 528.442 182.3 528.842 181.6C531.441 177.2 533.34 172.8 535.139 168.1C539.637 155.9 545.134 144.1 550.132 132C556.628 116.7 563.725 101.4 568.523 85.4998C570.122 80.1998 571.621 75.7998 565.724 73.4998C544.234 64.5998 523.345 54.8998 501.455 46.8998C473.769 36.7998 445.583 31.1998 416.797 25.3998C392.209 20.3998 367.421 15.4998 342.433 12.4998C316.945 9.39978 290.958 7.79978 265.27 9.09978C241.482 10.2998 217.794 13.1998 194.305 17.3998C170.417 21.5998 147.328 28.5998 124.339 36.4998C98.152 45.4998 72.2646 56.1998 49.0759 71.6998C43.5786 75.2998 38.2812 79.3998 33.0837 83.4998C32.584 83.8998 32.584 84.7998 32.8838 85.2998C48.876 115 63.5689 145.2 79.5611 174.9C80.4606 176.6 82.9594 175.1 82.1598 173.4C66.1676 143.7 51.4748 113.5 35.4826 83.7998C35.3826 84.3998 35.2827 84.9998 35.2827 85.5998C57.3719 67.6998 82.8595 54.9998 109.347 44.9998C131.836 36.4998 154.824 28.5998 178.313 23.4998C224.29 13.3998 271.268 9.79978 318.245 13.1998C343.232 14.9998 368.12 18.7998 392.708 23.5998C419.395 28.6998 446.682 33.1998 472.769 40.6998C497.757 47.8998 521.845 57.7998 545.634 68.1998C549.932 70.0998 554.33 71.9998 558.627 73.8998C560.626 74.6998 565.424 76.0998 566.524 77.1998C566.923 77.6998 566.823 79.4998 566.524 80.8998C565.524 85.7998 563.525 90.5998 561.926 95.1998C558.427 104.7 554.429 113.9 550.631 123.2C544.934 136.7 538.837 150.1 533.54 163.8C531.341 169.5 529.342 174.9 526.243 180.2C526.943 180 527.642 179.8 528.342 179.7C502.455 163.7 473.569 153.8 444.983 143.9C414.398 133.4 383.813 122.9 352.028 117C292.657 106 231.887 113.9 174.815 132.5C142.23 143.1 110.646 157 80.3607 173C78.5616 173.8 80.0608 176.4 81.66 175.5Z" fill="black"/>
<path d="M48.0766 116.6C48.3764 116.8 48.3764 115.9 47.8767 116.1C46.0775 116.7 43.6787 119.3 42.0795 120.2C28.4861 129 14.493 137.2 0.599734 145.5C-0.399779 146.1 -0.399779 148 0.999539 148.2C18.1912 150.8 35.0829 154.9 51.5749 160.7C53.274 161.3 56.1726 161.8 57.5719 163C61.2701 166.1 59.571 169.1 58.5714 172.5C57.372 176.9 56.0727 181.3 54.9732 185.7C52.3745 194.8 49.9756 203.8 47.3769 213C46.9771 214.4 48.4764 215.2 49.5758 214.7C72.2648 204.8 94.254 193.8 116.143 182.4C117.843 181.5 116.343 179 114.644 179.8C92.6548 191.1 70.5656 202.1 47.9766 212C48.6763 212.6 49.4759 213.1 50.1755 213.7C53.1741 203.1 56.0727 192.4 59.0712 181.8C60.3706 177.1 62.4695 171.9 63.0693 167.1C63.3691 164.4 62.5695 162.5 60.1707 161.1C56.5724 159 51.8747 157.8 47.9766 156.6C43.079 154.9 38.0814 153.4 33.0839 152.1C22.7889 149.2 12.294 147.2 1.79915 145.6C1.8991 146.5 1.99905 147.4 2.19895 148.3C17.0917 139.3 32.5841 130.9 46.8772 120.9C48.9761 119.4 53.274 116.7 49.6758 114.3C47.9766 112.9 46.4773 115.5 48.0766 116.6Z" fill="black"/>
<path d="M104.749 163.4C108.047 169.7 110.946 176.1 113.745 182.6C114.544 184.4 117.043 182.8 116.343 181.1C113.545 174.6 110.546 168.2 107.348 161.9C106.448 160.2 103.849 161.7 104.749 163.4Z" fill="black"/>
<path d="M115.643 179.4C105.548 176.2 95.7532 174.6 85.2583 173.9C83.3592 173.8 83.3592 176.8 85.2583 176.9C95.4533 177.7 105.049 179.3 114.844 182.3C116.643 182.9 117.443 180 115.643 179.4Z" fill="black"/>
<path d="M559.727 109.6C576.819 118.6 594.41 126.5 611.402 135.6V133C601.607 137.1 592.211 142.1 582.316 146.2C577.018 148.5 571.521 150.4 565.924 152.2C564.325 152.7 562.126 152.8 560.926 154.1C560.627 154.4 560.626 155.6 560.726 155.5C560.427 155.9 559.627 155.7 559.327 156.3C558.428 157.8 559.127 161.1 559.127 162.8V219.9C559.927 219.5 560.627 219 561.426 218.6C540.137 203.2 516.448 193.3 491.76 184.4C491.66 185.4 491.46 186.4 491.36 187.3C504.354 186.6 516.548 181.8 529.442 181.1C531.341 181 531.341 178 529.442 178.1C516.448 178.8 504.254 183.6 491.36 184.3C489.661 184.4 489.361 186.7 490.961 187.2C515.249 195.9 538.837 205.8 559.927 221C560.826 221.7 562.226 220.8 562.226 219.7V183.3V165.1V161C562.226 160.6 562.026 156.7 561.726 158C561.726 158.1 561.526 158.8 562.026 158.1C562.326 157.7 562.925 157.4 563.225 156.9C563.425 156.5 563.525 155.8 563.825 155.5C564.824 154.4 563.225 156.1 563.525 156C566.124 154.9 569.022 154.3 571.721 153.4C576.019 151.9 580.417 150.2 584.615 148.4C594.21 144.3 603.406 139.5 613.101 135.5C614.1 135.1 614 133.4 613.101 132.9C596.109 123.7 578.518 115.8 561.426 106.9C559.527 106.1 558.128 108.7 559.727 109.6Z" fill="black"/>
<path d="M493.959 185.3C497.657 179.9 499.556 173.5 503.155 168C504.254 166.4 501.655 164.9 500.556 166.5C497.058 172 495.059 178.4 491.36 183.8C490.361 185.4 492.86 186.9 493.959 185.3Z" fill="black"/>
<path d="M90.356 76.4C91.6554 76.6 93.4545 76.8 94.1542 76.7C96.1532 76.6 97.1527 77.5 101.251 83.4C108.547 93.7 112.445 103.5 112.545 112.1C112.545 114.6 112.645 117 112.645 117.6C112.645 118.3 113.545 119.3 114.944 120.3C118.742 123 118.942 127.4 115.344 128.4C113.345 129 112.245 128.4 111.846 126.8C111.346 125 110.446 125.1 108.747 127.1C105.649 130.8 98.4521 132.5 90.7559 131.2C83.6593 130.1 77.9621 126.6 74.064 121C71.1654 117.1 69.4662 109.8 69.5662 102.4C69.6661 90.2 72.7646 82.9 79.4614 78.7C82.6598 76.9 87.0577 75.9 90.356 76.4ZM82.0601 84.9C77.9621 87.9 75.9631 94.5 76.2629 104C76.5628 113.5 78.9616 118.7 84.259 122C88.8568 125 96.1532 126 101.151 124.7C102.95 124.2 104.949 122.3 104.649 121.4C104.549 121.2 102.65 119.6 100.351 118.1C95.9533 115 94.7539 113.4 96.0533 111.3C97.5525 108.9 99.0518 109.1 103.65 112.4C104.949 113.2 106.048 113.8 106.148 113.5C106.648 112.7 105.948 108.4 104.849 104.3C103.55 99.9 101.051 94.6 97.3526 89C95.2537 85.9 94.554 85.3 93.1547 85C92.1552 84.8 91.2556 84.3 91.0557 83.8C90.9558 83.4 89.8563 82.9 88.7568 82.7C86.458 82.6 84.5589 83.1 82.0601 84.9ZM112.745 72.3C113.845 72.6 114.444 74 120.941 90.4C129.037 110.9 129.837 112.3 134.535 114.3C139.232 116.4 141.831 114 142.231 107.5C142.731 99 140.931 89.5 137.033 78.9C134.335 72 134.035 71 134.734 70C135.634 68.6 136.633 68.2 138.333 68.6C139.532 68.8 140.032 69.6 141.731 72.9C147.428 84.3 150.627 105.4 147.928 113.4C144.53 123 133.835 124.2 125.939 116C123.54 113.5 123.44 113.3 115.844 94.2C108.447 75.7 108.147 74.9 108.847 73.8C109.647 72.6 111.246 71.9 112.745 72.3ZM151.826 56.7C153.325 57.4 153.025 56.4 165.22 92C170.017 105.9 170.017 106.2 169.318 107.6C168.418 109.4 166.919 109.9 165.22 109C164.12 108.4 163.62 107.6 162.821 105.1C162.221 103.3 158.523 92.5 154.425 80.9L147.128 59.9L148.128 58.3C149.227 56.2 150.027 55.9 151.826 56.7ZM196.304 53.6C199.803 56.3 201.002 58.8 199.503 60.9C198.203 62.6 196.604 62.8 195.205 61.4C190.907 57.7 190.307 57.4 188.708 57.6C180.812 58.7 176.914 71.1 179.613 85.9C181.312 94.5 183.011 97.3 187.808 98.8C191.207 99.9 196.404 99.2 200.102 97.1C201.602 96.2 204.9 93.8 207.499 91.9C212.496 87.9 214.196 87.5 215.695 89.8C216.994 91.8 215.895 93.6 211.097 97.6C204.9 102.6 201.902 104.1 196.104 105.2C181.811 107.9 174.315 100.4 172.616 81.7C172.016 74.8 172.716 67.6 174.615 62.7C175.914 59.2 179.912 54.2 182.811 52.8C187.409 50.1 192.106 50.5 196.304 53.6ZM228.189 45C229.488 46.1 229.788 47.7 229.088 49.4C228.389 51.1 230.488 66.5 231.387 66.5C232.187 66.4 236.285 60.7 241.982 51.7C244.081 48.3 246.18 45.7 246.88 45.4C248.479 44.8 250.778 46.3 251.178 48.1C251.477 49.5 245.28 59.2 237.384 70L233.186 75.7L234.586 76.5C240.983 79.9 252.777 88.1 257.574 92.3C260.573 94.9 261.173 97.3 259.573 98.8C257.774 100.4 255.875 100 253.676 97.7C249.978 93.9 233.686 82.8 233.086 83.7C232.887 83.9 233.286 87.9 233.986 92.7C234.985 100.2 235.085 101.4 234.386 102.3C233.286 103.8 231.187 103.8 229.688 102.3C228.289 101.1 228.189 100.9 227.489 92.4L226.789 83.7L225.09 83.2C221.792 82.4 221.292 79.8 223.691 76.9L225.49 74.8L223.691 60.7C221.992 47.3 221.892 46.5 222.791 45.4C223.691 43.9 226.59 43.6 228.189 45ZM275.566 77.2C279.664 82 279.964 87 276.565 90.4C275.566 91.4 274.366 92.2 273.966 92.2C273.567 92.2 272.967 92.6 272.567 93.1C272.167 93.6 271.168 94 270.068 94.1C267.969 94.2 266.57 92.7 266.47 90.5C266.37 88.7 267.37 87.7 269.968 86.9C272.567 86 272.667 84.2 270.268 81.2C268.169 78.4 267.969 77.4 269.369 75.8C271.168 73.8 273.067 74.3 275.566 77.2ZM333.038 40.4C337.935 40.9 338.735 41.1 342.433 43.3C347.531 46.2 349.829 49.1 352.528 55.5C355.327 62.3 355.727 66.4 354.127 71.8C352.228 78.2 349.729 81.9 343.732 87C337.735 92 333.637 94.2 327.34 95.8C324.942 96.4 322.543 97.3 322.043 97.7C320.744 98.7 318.045 98.5 317.245 97.4C316.945 96.9 315.846 96.4 314.847 96.1C310.848 94.9 311.448 90 315.646 89.8C317.145 89.8 316.846 91.1 319.844 73.1C320.744 68.1 322.243 60.6 323.142 56.5C325.541 46.1 325.541 46.8 323.742 46.9C320.744 47 319.144 43 321.443 41.2C321.943 40.7 323.742 40.3 325.141 40.1C326.441 40 330.139 40.1 333.038 40.4ZM332.038 47.1C330.939 48.6 325.341 76.4 324.242 85.6C323.642 90.4 323.642 90.4 330.139 87.8C333.238 86.6 335.636 85 339.035 82.2C348.23 74.5 350.229 67.2 346.331 57.6C344.632 53.4 342.433 50.7 338.835 48.7C335.836 46.9 332.738 46.2 332.038 47.1ZM402.504 61.3C404.103 66 403.303 70.7 400.205 75.6C397.806 79.1 394.708 81.9 390.51 83.8C388.71 84.6 387.211 85.4 387.111 85.6C387.111 85.8 388.111 87 389.61 88.3C394.008 92.4 398.606 101.2 397.906 104.1C397.506 105.7 395.507 106.7 393.908 106.2C392.709 105.9 392.209 105.1 391.109 102.5C390.41 100.6 389.11 98.2 388.211 96.9C386.212 93.7 381.614 89.9 378.815 89L376.516 88.2L373.618 96.1C370.919 103.1 370.519 104.1 369.32 104.6C367.521 105.4 366.022 104.7 365.522 102.8C365.022 101.3 365.222 100.5 367.621 93.8C369.52 88.3 370.219 85.8 370.12 84.3C370.12 82.5 370.22 81.9 371.319 80.9C372.219 80 373.718 76.5 376.716 67.7C379.015 61.1 380.814 55.5 380.714 55.3C380.415 54.4 377.316 54.4 375.817 55.3C374.018 56.4 372.019 56 371.019 54.3C370.12 52.8 370.519 51.3 372.418 49.7C374.318 47.9 377.616 47.6 383.413 48.7C394.308 50.5 400.405 54.5 402.504 61.3ZM387.711 56.5C386.811 57.8 379.715 78.6 380.015 79.2C380.514 80.1 386.312 78.6 389.71 76.7C397.806 72.2 399.205 62.7 392.409 58.4C389.21 56.3 388.111 55.9 387.711 56.5ZM441.285 60.6L443.284 61C444.383 61.2 445.583 61.8 445.783 62.3C446.282 63.3 446.282 71.1 445.683 80.9C445.383 86.5 445.483 88.1 446.382 89.4C447.582 91.3 447.382 92.9 445.783 94.4C444.783 95.4 444.583 96.4 443.684 104.9C442.984 111.5 442.884 115.3 443.184 117.1C443.884 120.4 443.784 121.2 442.284 122.2C440.885 123.2 438.586 122.7 437.687 121.1C436.087 118.3 435.987 114.1 437.587 100C437.886 97.5 437.886 95.3 437.687 95C437.387 94.5 421.894 94.3 421.095 94.8C420.895 95 418.196 98.5 415.298 102.7C410.9 109 409.7 110.3 408.501 110.5C406.402 110.8 404.603 108.8 405.102 106.9C405.302 106.1 407.601 102.5 410.2 98.7C412.899 95.1 415.098 91.5 415.198 90.8C415.298 90.1 416.097 89.1 416.997 88.4C417.896 87.7 421.295 83.8 424.693 79.6C428.091 75.5 433.089 69.4 435.987 66.1L441.285 60.6ZM438.986 73.4C438.486 73.3 428.491 85 427.492 86.9C426.792 88.2 427.492 88.4 432.989 88.4C438.786 88.4 438.786 88.5 439.086 81.9C439.186 78.9 439.386 75.9 439.386 75C439.386 74.1 439.186 73.4 438.986 73.4ZM468.472 67.3C469.071 68.5 469.371 86 468.871 93.5C468.671 96.7 468.671 99.3 468.771 99.3C468.971 99.4 470.371 97.5 471.97 95.2C476.568 88.2 480.566 83.9 482.165 83.8C484.964 83.8 485.363 84.8 486.363 97.9C487.362 108.9 488.062 112.5 488.662 109.7C489.461 106.3 504.454 82.6 506.953 80.8C508.552 79.7 510.751 80.5 511.451 82.4C511.95 83.9 511.85 84.1 510.651 85.9C509.851 87 507.453 90.5 505.454 93.7C500.356 101.3 494.759 111.3 490.861 119.8C489.161 123.6 487.362 127.1 486.763 127.5C485.363 128.6 483.464 128 482.665 126.2C482.265 125.4 481.465 118.5 480.766 110.7C480.166 103 479.366 96.7 479.066 96.8C477.667 96.9 470.77 109.6 467.472 118.1C465.973 121.9 465.373 122.7 464.074 123.3C462.774 123.8 462.175 123.8 461.275 123.1C460.575 122.6 459.976 121.8 459.876 121.2C459.876 120.6 460.276 115.4 460.875 109.6C462.075 96.7 462.574 87.4 462.275 75.9C462.075 69 462.275 66.9 462.974 66.1C463.974 65.1 467.672 65.8 468.472 67.3ZM518.847 116.6C519.946 118.5 520.046 119.3 519.547 121C518.347 125.3 512.95 126.5 510.851 122.8C510.051 121.4 510.051 120.7 510.851 117.8C511.651 114.8 511.95 114.4 513.15 114C515.549 113.1 517.448 114 518.847 116.6ZM535.039 83.5C535.039 83.7 533.94 85.5 532.74 87.5C530.241 91.8 523.645 105.8 523.045 108.2C522.445 110.2 520.046 112 518.647 111.6C516.348 111 515.748 109.8 516.548 107.2C517.847 102.7 525.744 85.7 528.342 81.9C528.842 81.5 535.239 82.8 535.039 83.5Z" fill="black"/>
<path d="M440.6 417.1C441.6 413.5 443 409.9 444.8 406.6C446.3 403.8 448.2 401.2 450.7 399.4C453.2 397.6 456.7 396.8 459.7 398C461 398.5 462.2 399.6 462.5 401M400.5 424.5C397.3 424.9 394.3 425.4 391.1 426C390.2 426.2 389.2 426.4 388.4 426.9C387.4 427.6 386.8 428.8 386.4 429.9C385.6 432.1 385 434.3 384.8 436.7C384.4 440.9 385.6 445.9 389.3 447.9C391.8 449.3 394.7 449.1 397.6 448.9C400.6 448.7 403.8 448.3 406.1 446.3C407.4 445.2 408.2 443.6 408.7 442.1C409.8 438.7 409.2 434.8 407.2 431.9C405.2 428.9 402 426.9 398.4 426.4L400.5 424.5ZM430 412.8C426.9 412.9 423.6 413.2 421.3 415.1C419.4 416.7 418.5 419.1 418.3 421.5C418.1 423.9 418.5 426.3 418.9 428.7C419 429.6 419.2 430.4 419.6 431.2C419.9 431.8 420.4 432.2 420.9 432.6C425.1 436.1 431.1 437.5 436.6 436.1C437.7 435.8 438.8 435.4 439.7 434.7C442.3 432.6 442.5 428.8 441.8 425.5C441.1 422.2 439.8 419.1 437.7 416.5C435.6 413.9 432.6 412.1 429.2 411.6L430 412.8ZM409.1 431.4C410.4 430.2 411.8 429 413.4 428.5C415.1 428 417.1 428.2 418.2 429.6L409.1 431.4Z" stroke="black" stroke-width="3" stroke-miterlimit="10" stroke-linecap="round" stroke-linejoin="round"/>
<path d="M392.9 425.801C393.7 424.001 394.5 422.301 395.3 420.501C396.2 418.501 397 416.701 398.2 414.901C400.9 410.601 404.8 407.201 409.1 404.601C410.3 403.901 411.5 403.201 412.7 403.101C414.1 403.101 415.5 403.901 415.8 405.201" stroke="black" stroke-width="3" stroke-miterlimit="10" stroke-linecap="round" stroke-linejoin="round"/>
<path d="M448.2 214.6C443.3 215.5 438.3 216.4 433.3 217.3C431.6 217.6 429.9 217.9 428.5 218.9C427.1 219.9 426.1 221.8 426.7 223.3C427.4 225.2 429.7 226 431.6 226.4C435.1 227.2 438.7 228 442.2 227.6C445.5 227.3 448.6 226 451.7 224.7C453.2 224.1 454.9 223.3 455.6 221.9C456.7 220 455.8 217.6 454.1 216.3C452.4 215 450.1 214.8 448 215.2" stroke="black" stroke-width="3" stroke-miterlimit="10" stroke-linecap="round" stroke-linejoin="round"/>
<path d="M425.9 223C427.4 231.5 428.8 240.1 430.2 248.5C430.3 249.3 430.5 250.1 430.8 250.8C431.2 251.7 432 252.4 432.7 253.1C436.4 256.3 441.5 257.8 446.4 257.4C451.3 257 456 254.5 459.1 250.8" stroke="black" stroke-width="3" stroke-miterlimit="10" stroke-linecap="round" stroke-linejoin="round"/>
<path d="M456.2 219.5C457.5 228.1 458.8 236.6 460 245.2C460.3 247.4 460.5 250 458.8 251.5" stroke="black" stroke-width="3" stroke-miterlimit="10" stroke-linecap="round" stroke-linejoin="round"/>
<path d="M457.5 228.1C457 225.8 459 224.7 460.9 223.5C463 222.3 465.7 222.5 467.5 224.1C469.3 225.6 470 228 470.3 230.4C470.8 233.6 470.9 236.9 469.1 239.6C467.2 242.4 463.2 243.5 460.1 242.2" stroke="black" stroke-width="3" stroke-miterlimit="10" stroke-linecap="round" stroke-linejoin="round"/>
<path d="M458.4 232.9C459.2 231.2 459.8 227.9 461.6 227.5C463.4 227.1 465.5 228 466.2 229.8C466.5 230.6 466.4 231.4 466.4 232.3C466.3 234.2 466.1 236.2 464.9 237.8C463.8 239.4 461.5 240.3 459.9 239.2" stroke="black" stroke-width="3" stroke-miterlimit="10" stroke-linecap="round" stroke-linejoin="round"/>
<path d="M282.6 262.1C282.3 258.7 279.8 255.6 276.6 254.5M281.9 261.3C279.6 260.5 277.2 260.1 274.8 260.2C273.8 260.2 272.7 260.3 271.8 260.8C270.6 261.4 269.8 262.5 269.2 263.6C267.1 267.3 267.2 272.2 269.3 275.8C270.2 277.3 271.4 278.7 272.1 280.2C273 282.1 273.1 284.2 273.7 286.3C274.3 288.3 275.7 290.3 277.7 290.7C280.3 291.1 282.5 288.8 283.7 286.5C285.7 289 288.9 291 291.9 289.8C294.8 288.6 295.6 285.2 296.3 282.2C297.4 278 298.8 273.8 300.6 269.9C301.8 267.3 303.2 264.4 302.1 261.7C301.2 259.5 298.8 258.3 296.6 257.5C294.1 256.6 291.4 256.1 288.8 256.5C286.1 256.9 283.6 258.3 282.3 260.5L281.9 261.3Z" stroke="black" stroke-width="3" stroke-miterlimit="10" stroke-linecap="round" stroke-linejoin="round"/>
<path d="M275 265.6C273.1 267 272.2 269.5 272.7 271.8M281.9 259.3C282.1 257.2 281.5 255.2 282.2 253.2C282.9 251.2 284.8 249.8 286.5 248.7C286.2 250.6 287.2 252.5 286.9 254.4C286.5 256.6 284.6 257.9 282.9 259.2L281.9 259.3ZM276.4 264.8C274.8 265.1 272.9 264.3 271.7 265.4C271 266 270.9 267 270.9 267.9C271 269.4 271.5 270.8 272.3 271.9L276.4 264.8Z" stroke="black" stroke-width="3" stroke-miterlimit="10" stroke-linecap="round" stroke-linejoin="round"/>
<path d="M420.9 289.6C420.8 288.2 422.8 287.3 424 288.1C425.2 288.8 425.6 290.4 425.4 291.7C425.2 293.3 424.4 294.8 423.1 295.6C422.2 296.2 421.1 296.4 420.1 296.6C412 298.3 403.9 300 395.9 301.7C394.5 302 392.9 302.4 392.2 303.5C391 305.1 391.7 307.4 393.2 308.7C394.7 310 396.6 310.5 398.5 311C408.7 313.5 419 315.8 429.2 318.3C433.2 319.3 438.1 320.1 441.2 317.2C442.2 316.3 443 314.8 442.6 313.6C442.3 312.5 441.3 311.7 440.4 311C436.2 307.7 431.9 304.6 427.8 301.3C427 300.7 426.1 300 425.5 299.2C424.8 298.3 424.3 297.4 423.8 296.4C423.6 295.8 423.4 295.2 423.6 294.6C423.6 294.5 423.6 294.5 423.7 294.4H423.8C424 294.4 424.2 294.5 424.5 294.5C424.7 294.5 425 294.5 425.1 294.3V294.2C425.1 294.1 425 294.1 425 294C424.8 293.9 424.7 293.8 424.5 293.7C424.3 293.6 424.2 293.4 424.3 293.2C424.4 293 424.7 293 425 293C425.3 293 425.5 292.9 425.8 292.9C425.9 292.9 425.9 292.9 426 292.8C426.1 292.7 426 292.4 425.8 292.3C425.6 292.2 425.4 292.2 425.2 292.1C425 292 424.9 291.8 425 291.6" stroke="black" stroke-width="3" stroke-miterlimit="10" stroke-linecap="round" stroke-linejoin="round"/>
<path d="M494.5 311.5C498.3 315 502.3 318.6 506.1 322C508 323.7 509.9 325.7 509.5 328.2C508.7 328 507.9 327.8 507 327.7C506.5 327.6 506 327.5 505.6 327.3C505.2 327.1 504.8 326.7 504.4 326.4C500.1 322.5 495.7 318.4 491.3 314.5C490.7 314 490.2 313.5 490 312.7C489.8 311.8 490.3 310.8 491.1 310.4C491.9 310 493 310.3 493.5 311.1" stroke="black" stroke-width="3" stroke-miterlimit="10" stroke-linecap="round" stroke-linejoin="round"/>
<path d="M496.3 312.5C497.3 310.9 498.4 309.2 498.1 307.5C497.8 305.7 496.2 304.4 494.7 303.6C493.9 303.2 492.9 302.8 492 302.7C490.5 302.6 489 303.3 488.1 304.4C487 305.4 486.3 306.8 485.6 308C485.1 309.1 484.6 310.3 484.7 311.5C484.8 312.8 485.5 313.9 486.2 314.9C487.2 316.3 488.3 317.6 489.8 318.2C491.4 318.8 493.3 318.6 494.2 317.2" stroke="black" stroke-width="3" stroke-miterlimit="10" stroke-linecap="round" stroke-linejoin="round"/>
<path d="M494.2 303.3C492.8 302.4 491.1 302.3 489.6 302.3C488.9 302.3 488.2 302.2 487.5 302.5C487 302.7 486.5 303.1 486.1 303.5C484 305.6 482.9 308.5 483.3 311.5C483.7 314.4 485.7 317 488.4 318" stroke="black" stroke-width="3" stroke-miterlimit="10" stroke-linecap="round" stroke-linejoin="round"/>
<path d="M482.1 309.8C480.4 307.9 478.7 306.2 476.7 304.8C476.3 304.5 475.9 304.3 475.7 303.8C475.5 303.3 475.7 302.8 476 302.3C477 300.4 478.6 298.9 480.5 298C480.8 297.9 481.1 297.7 481.4 297.7C482.6 297.5 483.8 298.3 484.8 299.1C486 300.1 487.2 301 488.3 302" stroke="black" stroke-width="3" stroke-miterlimit="10" stroke-linecap="round" stroke-linejoin="round"/>
<path d="M484 298.3C484.1 297 484.2 295.7 484.3 294.5C484.3 294.1 484.3 293.8 484.2 293.5C484 293.1 483.7 292.9 483.3 292.7C481.7 291.7 479.9 290.7 478 290.9C475.7 291.1 474 292.9 472.7 294.7C471.6 296.3 470.7 298.1 470.5 300C470.3 302 471 304 472.5 305.2C474 306.5 476.4 306.6 477.8 305.3" stroke="black" stroke-width="3" stroke-miterlimit="10" stroke-linecap="round" stroke-linejoin="round"/>
<path d="M284.5 227.2C286.9 223.1 289.2 218.8 292.1 215C295.5 210.5 299.7 206.3 302.1 201.1C304.3 196.5 304.8 191.2 307 186.6C304.7 183.2 300.2 182.4 296.3 181.9C293 181.4 289.7 181 286.4 181C284 181 281.7 181.3 279.2 181.5C278.5 181.6 277.8 181.7 277.3 182.1C276.7 182.6 276.5 183.5 276.4 184.3C274.3 199.3 281.8 213.9 283.9 228.9" stroke="black" stroke-width="3" stroke-miterlimit="10" stroke-linecap="round" stroke-linejoin="round"/>
<path d="M290.6 213.5C289.7 214.3 288.6 214.9 287.5 215.3C286.9 215.5 286.2 215.7 285.6 215.4C285.4 215.3 285.2 215.1 285 214.9C284.3 214.2 283.7 213.3 283.5 212.3C283.3 211.3 283.5 210.2 284.2 209.5C285.3 208.5 287.1 208.7 288.2 209.7C289.4 210.7 289.9 212.2 290.2 213.5M306.9 187.1C308.4 187.4 310.1 187.1 311.1 186C312.2 184.9 312.5 183 311.5 182C311.1 181.6 310.7 181.3 310.2 181C300.3 175.3 288.1 173.7 277.3 177C278.2 178.1 278.7 179.6 278.1 180.8C277.6 182.1 275.8 182.9 274.7 182C273.7 181.3 273.7 179.7 274.4 178.7C275.1 177.7 276.4 177.3 277.7 177.4L306.9 187.1ZM299.9 191.3C300.4 192.1 300.9 193.1 300.6 194C300.4 194.6 299.9 194.9 299.3 195.2C297.2 196.1 294.7 195.1 293.6 193.1C293.4 192.8 293.3 192.4 293.3 192.1C293.3 191.3 294 190.7 294.7 190.3C295.7 189.7 296.8 189.3 297.9 189.3C299 189.3 300.2 189.9 300.7 190.9L299.9 191.3ZM285.5 188.7C286.2 189.8 286.7 191.1 286.5 192.2C286.3 193.5 285.5 194.7 284.2 195C283.9 195.1 283.6 195.1 283.3 195C283.1 194.9 282.9 194.8 282.7 194.6C282.1 194.2 281.5 193.7 280.9 193.3C280.5 193 280.1 192.7 279.9 192.3C279.6 191.7 279.8 190.9 280.3 190.3C280.8 189.8 281.4 189.4 282.1 189.1C282.9 188.8 283.7 188.5 284.5 188.5C285.3 188.5 286.2 189 286.5 189.8L285.5 188.7ZM290.8 203.1C290.7 204 290 204.8 289.1 205.2C288.2 205.6 287.3 205.6 286.4 205.3C285.8 205.1 285.2 204.8 284.8 204.3C284.2 203.5 284.1 202.4 284.5 201.5C284.9 200.6 285.7 199.9 286.6 199.5C287.1 199.3 287.8 199.2 288.3 199.4C288.6 199.5 288.8 199.8 289 200C290 201 291 202.1 291.2 203.4L290.8 203.1Z" stroke="black" stroke-width="3" stroke-miterlimit="10" stroke-linecap="round" stroke-linejoin="round"/>
<path d="M490.1 360.9C488.5 360.7 486.9 362.2 486.8 363.9C486.7 365.6 487.6 367.2 488.8 368.2C489.9 369.2 491.4 369.9 492.8 370C494.3 370.1 495.9 369.4 496.6 368.1C497.3 366.8 497.4 365.2 497.3 363.7C497.3 363.3 497.2 362.8 497 362.5C496.8 362.2 496.4 362 496.1 361.8C494.1 360.9 492 360.4 489.8 360.4" stroke="black" stroke-width="3" stroke-miterlimit="10" stroke-linecap="round" stroke-linejoin="round"/>
<path d="M484.7 357.6C483.6 358.4 483.3 360.2 484.1 361.2C484.9 362.3 486.6 362.7 487.7 362.1C488.9 361.5 489.6 359.9 489.2 358.6C489.2 358.4 489.1 358.3 489 358.2C488.8 358.1 488.6 358.1 488.4 358.1H482.4" stroke="black" stroke-width="3" stroke-miterlimit="10" stroke-linecap="round" stroke-linejoin="round"/>
<path d="M485.7 364.8C485.4 367.1 485 369.3 485.2 371.5C485.4 373.8 486.1 376 487.7 377.7M488.9 360C490.8 358.4 492.3 356.4 493.2 354.1C493.4 353.7 493.6 353.2 493.9 352.9C495 351.9 496.9 353 498.1 352.2L488.9 360ZM490.1 360.3C491.4 359.5 492.7 358.7 493.8 357.9C494.9 357.2 495.9 356.5 497.2 356.3C498.4 356 499.8 356.3 500.6 357.3L490.1 360.3ZM491.2 360H500.6C502.1 360 504 360.2 504.7 361.5L491.2 360ZM487.5 361.7C484.9 362.1 482.8 364.2 480.2 364.7C479.3 364.9 478.4 364.9 477.6 365.4C476.8 365.9 476.5 367.1 477.2 367.6L487.5 361.7ZM486 362.9C484.5 364.5 483 366.1 481.6 367.6C481.3 367.9 481 368.2 480.9 368.6C480.7 369.1 480.8 369.6 480.9 370C481 371.1 480.9 372.2 480.5 373.3L486 362.9Z" stroke="black" stroke-width="3" stroke-miterlimit="10" stroke-linecap="round" stroke-linejoin="round"/>
<path d="M484.6 358.9C484.4 359.4 484.3 359.9 484.4 360.4C484.7 360 485 359.6 485.1 359.1V360.8C485.3 360.2 485.5 359.6 485.6 358.9V360.5C486 360 486.2 359.3 486.3 358.7C486.4 359.4 486.6 360.1 486.8 360.8C487.2 360.5 487.4 360 487.5 359.5V360.5M488.4 362.1H475.4C475.1 362.1 474.8 362.1 474.5 362.2C474.2 362.3 474 362.6 473.9 362.9C473.2 363.9 472.5 365 471.8 366L488.4 362.1ZM490.1 358.5C489.3 357 488.7 355.3 488.3 353.7C488.1 352.6 488.1 351.3 489 350.7C489.8 350.3 491 350.4 491.2 349.5L490.1 358.5ZM488.8 362.3C488.5 362.9 488.4 363.5 488.4 364.2C488.8 363.5 489.2 362.8 489.6 362.2C489.1 363.1 488.8 364.1 488.7 365.2C489.3 364 489.9 362.7 490.5 361.6C490.7 363.3 490.5 365 490.1 366.5C490.6 364.9 491.1 363.4 491.9 362.1C491.9 363.9 491.7 365.7 491.5 367.5C491.9 365.8 492.4 364.1 492.8 362.5C493 364.5 492.9 366.5 492.6 368.5C493.4 366.6 494.2 364.9 495 363V367.7C495.2 366.5 495.6 365.3 496.1 364.2C496.1 365.3 496.1 366.4 495.9 367.5C495.9 366.8 496 366.1 495.8 365.4C495.6 364.7 495.3 364 494.7 363.6C493.8 363 492.5 363.2 491.5 363.8C490.6 364.4 489.9 365.4 489.3 366.3C489.2 365 489.2 363.6 489.4 362.4C489.1 364 489.7 365.8 490.9 366.8L488.8 362.3Z" stroke="black" stroke-width="3" stroke-miterlimit="10" stroke-linecap="round" stroke-linejoin="round"/>
<path d="M488.6 361.6C488.5 362.9 488.4 364.2 488.3 365.4C488.9 364.6 489.3 363.7 489.5 362.7C489.3 363.9 489.6 365.1 490 366.2C490.2 366.8 490.4 367.5 490.9 368C491.5 368.5 492.3 368.7 493.1 368.6C493.9 368.4 494.6 368 495.1 367.4C495.2 367.6 495.2 367.8 495.1 368C495.9 366.1 496.5 364.2 496.8 362.2C496.4 362.8 496.1 363.4 495.7 364.1C495.7 362.8 495.6 361.5 495.3 360.3C494.4 361.1 493.6 362 493.1 363.1C492.8 362.4 492.4 361.7 492.1 361C491.7 361 491.6 361.5 491.5 361.8C491.4 362.1 491.1 362.6 490.8 362.4" stroke="black" stroke-width="3" stroke-miterlimit="10" stroke-linecap="round" stroke-linejoin="round"/>
<path d="M485 358.9C486.3 359.1 487.6 359.1 488.8 358.9C488.6 360.1 488.6 361.3 488.7 362.4C488.8 364.3 489.4 366.1 490.1 367.9C489.4 367.2 488.7 366.6 488 365.9C488.5 367.2 490.2 367.8 491.3 367.1C492.4 366.4 492.8 365 493 363.8C493 365.6 493.3 367.2 493.8 368.9C494.2 366.8 494.5 364.8 494.9 362.6C495 363.8 495.2 365 495.3 366.2C495.4 365 495.4 363.8 495.5 362.6C495.9 363.2 496.2 364 496.2 364.7C495.2 364.8 494.2 364.6 493.2 364.2C493.4 363.9 493.6 363.5 493.8 363.2C492.2 364.6 490.7 365.9 489.2 367.2C489 366.3 489.1 365.3 489.6 364.5" stroke="black" stroke-width="3" stroke-miterlimit="10" stroke-linecap="round" stroke-linejoin="round"/>
<path d="M145.8 267.201C151.8 266.801 157.8 267.701 163.4 269.701C165.8 270.501 168 271.601 169.7 273.301C172.5 276.201 173.1 280.401 173.1 284.401C173.1 286.301 172.9 288.201 172.1 290.001C170.2 294.201 165.5 296.201 161 297.201C154.7 298.601 147.5 298.301 142.3 294.501C137.7 291.101 135.1 285.001 135.9 279.401C136.7 273.701 140.9 268.701 146.3 266.801" stroke="black" stroke-width="3" stroke-miterlimit="10" stroke-linecap="round" stroke-linejoin="round"/>
<path d="M114.8 225.4C112.5 225.5 110.7 226.9 108.9 228.2C106.9 229.7 104.8 231.3 103.6 233.4C102.1 236.1 102.1 239.3 102.2 242.4C102.2 243.8 102.3 245.3 103.1 246.3C104.2 247.9 106.4 248.2 108.2 248.4M159.9 269.5C159.4 273.7 158.9 278 158.6 282.2C158.5 283.6 158.5 285.2 159.5 286.1C160.1 286.7 161 286.9 161.9 287.1C164.7 287.7 167.6 287.8 170.4 287.5L159.9 269.5ZM144.6 281.5C141.2 280.9 137.9 279.4 134.6 278.1C124.4 274.2 113.3 272.4 102.4 272.9L144.6 281.5ZM150.5 269.8C150.8 260.1 150.6 250.4 149.9 240.7L150.5 269.8Z" stroke="black" stroke-width="3" stroke-miterlimit="10" stroke-linecap="round" stroke-linejoin="round"/>
<path d="M160.3 313.8C167.3 314.4 174.3 313.6 181 311.4M159.3 236.8C160.8 237.5 162.2 238.4 163.3 239.6C166.2 242.5 164.5 247.4 160.4 247.7C145.1 249.1 129.5 247.4 114.9 242.7C114.3 242.5 113.8 242.1 113.5 241.6C113 240.6 113.7 239.8 114.3 239.2C125.8 228.1 142.9 223.1 158.6 226.3L159.3 236.8ZM163.6 300.5C164.3 304.9 165.4 309.4 167 313.6L163.6 300.5ZM142.9 298.3C142 299.7 141 301.1 139.9 302.2L142.9 298.3ZM129.7 301.9C132.4 302.7 134.6 304.5 137.1 305.7C140.4 307.5 144.1 308.7 147.7 309.1L129.7 301.9ZM169.3 317.1C178.4 316.7 187.4 315.4 196.2 313.3L169.3 317.1Z" stroke="black" stroke-width="3" stroke-miterlimit="10" stroke-linecap="round" stroke-linejoin="round"/>
<path d="M98.9 270.3C101.7 272.4 104.6 274.2 107.7 275.9M141.9 241.9C138.8 241.2 135.9 239.9 133.2 238.2C132.2 237.6 131.2 236.6 131.4 235.5C131.6 234.2 133.2 233.7 134.6 233.6C138.6 233.2 142.7 233.1 146.8 233.3L141.9 241.9ZM102.4 265.5C105.4 264.5 109 265.6 110.9 268.2C113 271 112.8 275.1 110.6 277.8C108.4 280.5 104.4 281.3 101.2 280.1C99 279.2 97.3 277.2 96.6 275.1C96.3 274.2 96.2 273.2 96.5 272.2C96.7 271.6 97.1 271 97.6 270.5C99.1 268.7 100.9 267.1 102.8 265.9L102.4 265.5ZM108.8 267.2C105.9 270.3 103.3 273.4 100.8 276.8L108.8 267.2ZM101.1 267.5L108 277.7L101.1 267.5ZM111.9 271.3C108.1 273.7 103.4 274.7 98.9 274.3L111.9 271.3Z" stroke="black" stroke-width="3" stroke-miterlimit="10" stroke-linecap="round" stroke-linejoin="round"/>
<path d="M232.1 235.5C230.7 233.4 227.8 232.9 225.3 233.2C222.8 233.5 220.3 234.1 217.8 233.5C214.7 232.7 212.5 229.9 212.1 226.7C211.6 223.6 212.8 220.4 214.9 218C216.2 216.4 218 215.1 220 214.8C221.9 214.5 223.7 215.2 225.4 216.1C227.5 217.3 229.1 219 230.4 220.9C231.9 223.2 232.7 225.9 234.5 227.9C235.1 228.6 235.8 229.1 236.2 229.9C236.8 231.2 236.5 232.8 235.7 233.9C234.9 235.1 233.7 236 232.5 236.8" stroke="black" stroke-width="3" stroke-miterlimit="10" stroke-linecap="round" stroke-linejoin="round"/>
<path d="M234.1 234.4L232 232.9C231.5 232.5 230.9 232.1 230.6 231.6C230.3 231.1 230.3 230.3 230.8 229.8C230.9 229.7 231 229.7 231.1 229.7C231.2 229.7 231.3 229.8 231.3 229.8C231.5 229.9 231.7 230 231.8 230.2C231.9 230.4 231.8 230.7 231.6 230.8C231.5 230.8 231.3 230.8 231.2 230.7C230.7 230.4 230.3 230 230.1 229.4C230 229.1 230 228.8 230.1 228.6C230.3 228.4 230.6 228.3 230.9 228.4C231.2 228.5 231.4 228.7 231.7 228.9C232.8 229.8 233.9 230.8 235 231.7" stroke="black" stroke-width="3" stroke-miterlimit="10" stroke-linecap="round" stroke-linejoin="round"/>
<path d="M238.1 240.3C238.7 240.4 239.4 240.4 239.9 240.1C240.2 240 240.6 239.7 240.7 239.4C241 238.7 240.6 238 240.2 237.4M232.8 236.3C233.5 237.6 234.5 238.8 235.6 239.7C235.9 239.9 236.1 240.2 236.5 240.2C237 240.3 237.6 240 238 239.7C238.8 239 239.6 238.2 240.1 237.3C240.3 237 240.4 236.7 240.4 236.4C240.5 235.9 240.3 235.3 240 234.8C239.1 232.9 237.6 231.3 236 230L232.8 236.3ZM235.2 238.8C236.6 237.7 237.9 236.4 238.7 234.9L235.2 238.8ZM234.7 237.8C235.7 236.3 236.6 234.7 237.4 233.2L234.7 237.8Z" stroke="black" stroke-width="3" stroke-miterlimit="10" stroke-linecap="round" stroke-linejoin="round"/>
<path d="M111 376.699C116.7 377.699 120.9 382.499 125 386.599C132.9 394.399 142.1 400.399 151.4 406.399M119.9 387.699C115.5 388.299 110.8 386.899 106.6 388.399C101.9 390.199 99.1 395.199 97.7 399.999C96.6 404.099 96.2 408.499 96.5 412.799C96.6 413.999 96.8 415.399 97.7 416.199C98.2 416.699 98.9 416.999 99.7 417.199C104.1 418.599 109.2 418.199 113.3 415.899C117.4 413.599 120.6 409.799 121.9 405.299C122.4 403.699 122.6 401.899 122.2 400.299C121.8 398.699 120.9 397.199 120 395.899C118.6 393.699 117.1 391.599 115.8 389.399L119.9 387.699ZM109.8 399.599C109.2 390.099 109.5 380.699 110.7 371.199L109.8 399.599Z" stroke="black" stroke-width="3" stroke-miterlimit="10" stroke-linecap="round" stroke-linejoin="round"/>
<path d="M110.1 372.9C122.5 373.1 134.9 373 147.4 372.6L146.8 411" stroke="black" stroke-width="3" stroke-miterlimit="10" stroke-linecap="round" stroke-linejoin="round"/>
<path d="M150.7 404.999C158.8 406.299 166.5 401.599 174.6 400.799M146.1 374.899C148.7 375.199 151 376.699 153.1 378.299C158.5 382.199 163.5 386.699 168 391.599L146.1 374.899Z" stroke="black" stroke-width="3" stroke-miterlimit="10" stroke-linecap="round" stroke-linejoin="round"/>
<path d="M108.4 372.1C108.6 369.2 108.6 366.4 107.7 363.7C106.9 361 105 358.5 102.5 357.3C99.6999 356.1 96.3999 356.6 93.9999 358.4C91.5999 360.2 90.1999 363 89.7999 366C89.5999 367.4 89.7999 369.1 90.7999 370C92.0999 371.2 94.0999 370.9 95.6999 370.6M175.7 376.4C172.1 375.6 168.1 377.5 165.6 380.3C163.1 383.1 161.9 386.9 161.2 390.5C159.9 396.6 159.8 403.1 162.6 408.7C165.4 414.2 171.6 418.5 177.7 417.4C183 416.5 187.1 412 188.9 407C190.8 402 190.7 396.5 190.4 391.1C190.2 388 190 385 189 382.2C186.8 376.2 179.9 371.6 173.8 373.6L175.7 376.4ZM141.5 373.6V360.8V373.6ZM134.1 361.3H147.9H134.1Z" stroke="black" stroke-width="3" stroke-miterlimit="10" stroke-linecap="round" stroke-linejoin="round"/>
<path d="M142.4 412C144.1 411.8 145.8 412.1 147.3 412.8M168 393.3C169.6 392.9 171.1 394.1 172 395.5C172.9 396.8 173.6 398.4 174.8 399.4L168 393.3Z" stroke="black" stroke-width="3" stroke-miterlimit="10" stroke-linecap="round" stroke-linejoin="round"/>
<path d="M435 352.5C431.6 351.3 427.6 352.7 424.9 355.2C422.2 357.7 420.6 361.1 419.3 364.5C418 367.7 416.9 371.1 417.4 374.5C417.9 378.3 420.3 381.8 423.4 384C426.6 386.3 430.4 387.4 434.1 387.6C436.1 387.8 438.1 387.7 440 387.2C441.7 386.7 443.3 385.8 444.6 384.6C450.2 380.2 452.9 372.3 450.9 365.4C448.9 358.5 442.1 353.3 435 353.4" stroke="black" stroke-width="3" stroke-miterlimit="10" stroke-linecap="round" stroke-linejoin="round"/>
<path d="M438.2 354.7C438.2 355.8 438.3 356.9 438.5 358C438.8 359.3 439.2 360.5 439.6 361.7C440.5 364.4 441.6 367.1 443.1 369.5C444.6 371.9 447 373.8 449.8 374.5C449.5 374.4 449.2 374.3 449 374.2M420.5 363.6C424.5 366.7 427.2 371.7 426.7 376.7C426.4 379.3 425.3 381.7 424.3 384.1L420.5 363.6Z" stroke="black" stroke-width="3" stroke-miterlimit="10" stroke-linecap="round" stroke-linejoin="round"/>
<path d="M417.6 373.701C419.2 373.601 420.8 373.501 422.4 373.501C423.9 373.401 425.3 373.401 426.7 373.101C428.3 372.801 429.9 372.301 431.4 371.901C434.7 370.901 438 369.801 441 368.201C444 366.501 446.6 364.001 447.9 360.801" stroke="black" stroke-width="3" stroke-miterlimit="10" stroke-linecap="round" stroke-linejoin="round"/>
<path d="M426.9 352.101C427 355.001 428.8 357.401 430.3 359.901C435.3 367.901 437.7 377.401 437.1 386.901C437.1 387.101 437 387.301 436.9 387.301C436.7 387.301 436.7 387.001 436.8 387.001" stroke="black" stroke-width="3" stroke-miterlimit="10" stroke-linecap="round" stroke-linejoin="round"/>
<path d="M321.2 360.4C326 352.3 330.2 347.5 335.6 340.2C336.7 338.7 341.7 336.8 343.6 336.8C345.7 336.8 347.5 338.3 348.8 340C352.2 344.4 355.4 351.6 354.2 357.1C353 362.6 347.6 366.6 343.4 370.3C346.8 367 350.1 363.9 353.6 360.6C354.4 359.8 355.2 359.1 356.3 358.8C358.6 358.1 360.7 360 362.1 361.9C373.6 377.1 366.4 385.6 357.2 392.1C360.1 389.5 362.8 387 365.7 384.5C366.3 383.9 367 383.4 367.8 383.2C368.9 383 370 383.5 371 384.2C379.5 390 381.2 403.6 374.5 411.5C371.9 414.5 368.6 416.5 365.3 418.6C357 423.7 348.9 429.1 341.7 435.7C327.9 448.4 324.8 451.6 308 459.8C308 459.8 305.7 459.5 302 459.1C297 458.4 292 458.4 287.1 457.4C263.4 448.5 239.8 433.7 213.2 442.6C224 429.8 243.8 420.9 243.9 401.7C245 398.6 246 395.6 246.6 393C247.2 390.4 247.6 388.3 247.4 387C245.9 376.6 236.5 349.5 236.5 345.3C236.5 341 235 338.4 234.1 334.2C233.1 329.4 234.7 327.6 234.1 322.3C233.6 317.4 232.3 304.7 234.5 300.3C240.5 297.9 248.7 300.3 253.2 304.9C258.8 310.6 259.6 319.1 262 326.8C263.3 331 264.1 335.5 265.4 339.8C268.4 350 270.6 350.8 278.2 358.3C280.6 358 285.6 354.6 287 352.6C310.4 318.8 338.8 292 359.8 256.7C360 256.4 360.1 256.2 360.4 255.9C368.8 244.7 386.5 253.5 382.8 267C382.5 268 382.2 269 381.9 269.8C379.1 277.6 374.4 284.5 369.8 291.4C359 307.6 331.9 344.7 321 360.9L321.2 360.4Z" fill="#FFD139"/>
<path d="M204.6 445.2L226.5 423.3C229.6 420.2 232.6 417.1 234.2 413.1C236.1 408.3 244 389 243.3 383.8C241.8 373.4 232.4 346.3 232.4 342.1C232.4 337.8 230.9 335.2 230 331C229 326.2 230.6 324.4 230 319.1C229.5 314.2 228.2 301.5 230.4 297.1C236.4 294.7 244.6 297.1 249.1 301.7C254.7 307.4 255.5 315.9 257.9 323.6C259.2 327.8 260 332.3 261.3 336.6C264.3 346.8 266.5 347.6 274.1 355.1C276.5 354.8 281.5 351.4 282.9 349.4C306.3 315.6 334.7 288.8 355.7 253.5C355.9 253.2 356 253 356.3 252.7C364.7 241.5 382.4 250.3 378.7 263.8C378.4 264.8 378.1 265.8 377.8 266.6C375 274.4 370.3 281.3 365.7 288.2C354.9 304.4 327.8 341.5 316.9 357.7" stroke="black" stroke-width="3" stroke-miterlimit="10" stroke-linecap="round" stroke-linejoin="round"/>
<path d="M317.3 357.5C322.1 349.4 326.3 344.6 331.7 337.3C332.8 335.8 337.8 333.9 339.7 333.9C341.8 333.9 343.6 335.4 344.9 337.1C348.3 341.5 351.5 348.7 350.3 354.2C349.1 359.7 343.7 363.7 339.5 367.4C342.9 364.1 346.2 361 349.7 357.7C350.5 356.9 351.3 356.2 352.4 355.9C354.7 355.2 356.8 357.1 358.2 359C369.7 374.2 362.5 382.7 353.3 389.2C356.2 386.6 358.9 384.1 361.8 381.6C362.4 381 363.1 380.5 363.9 380.3C365 380.1 366.1 380.6 367.1 381.3C375.6 387.1 377.3 400.7 370.6 408.6C368 411.6 364.7 413.6 361.4 415.7C353.1 420.8 345 426.2 337.8 432.8C324 445.5 320.9 448.7 304.1 456.9" stroke="black" stroke-width="3" stroke-miterlimit="10" stroke-linecap="round" stroke-linejoin="round"/>
<path d="M366.4 232.8C364.1 230.6 363 226.5 363 222.6C363 218.7 363.7 215.1 364.3 211.4C364.6 209.7 364.8 207.9 364.2 206.4C363.9 205.6 363.3 205 362.9 204.2C361.7 202.2 361.2 199.6 361 197C360.6 192.7 360.6 188.2 361.2 184" stroke="black" stroke-width="3.596" stroke-miterlimit="10" stroke-linecap="round" stroke-linejoin="round"/>
<path d="M305.7 338.1C307.4 341.3 309.8 343.9 312.9 345.8M232.6 338L237.2 336.3L232.6 338ZM230.8 331.2C231.9 331.4 233.1 331.7 234.2 331.9L230.8 331.2ZM233.3 343.7C233.2 342.5 233.9 341.2 235 340.6L233.3 343.7ZM230.5 296.9C231.4 299.1 232.3 301.1 233.2 303.3C234.6 306.7 236.1 310.2 236 313.8C235.9 317.4 234.2 321.4 230.8 322.8L230.5 296.9ZM355.9 262.2C357.4 257.9 360.6 254.2 364.8 252.1C366 251.5 367.4 251 368.6 251.4C370.3 251.9 371.3 253.7 372 255.2C372.9 257.2 373.7 259.3 373.8 261.5C373.9 264.1 372.9 266.6 371.6 268.9C370.2 271.5 368.1 274.1 365.1 274C362.6 273.9 360.7 271.8 359.3 269.7C358.3 268.1 357.4 266.5 356.7 264.9C356 263.4 355.5 261.5 356.4 260.2L355.9 262.2ZM331 306.5C332.9 309.7 335.4 312.5 338.5 314.6L331 306.5ZM333 303.2C334.9 306.4 337.6 309 340.9 310.9L333 303.2ZM337.3 302.8C338.8 305.2 341.6 306.2 343.2 308.5L337.3 302.8ZM332.8 299C335.6 298.9 338.3 299.9 340.5 301.5L332.8 299Z" stroke="black" stroke-width="3" stroke-miterlimit="10" stroke-linecap="round" stroke-linejoin="round"/>
<path d="M358.2 242.2C358.2 240 357.4 238.1 356.7 236.1C355 230.9 354.8 225.1 354.6 219.3M376.8 241.3C374.8 240 374.5 236.3 374.5 233.3C374.6 228.3 374.8 223.2 375.2 218.3C375.4 216.1 375.6 213.9 375.2 211.6L376.8 241.3Z" stroke="black" stroke-width="3.596" stroke-miterlimit="10" stroke-linecap="round" stroke-linejoin="round"/>
</g>
<defs>
<clipPath id="clip0">
<rect width="615" height="460" fill="white"/>
</clipPath>
</defs>
</svg>
